<svg width="24" height="24" viewBox="0 0 24 24" fill="none" xmlns="http://www.w3.org/2000/svg">
<path d="M7.46556 6.96403H4.66955C3.75712 6.96403 3.04464 7.18894 2.56142 7.67124C2.07815 8.15359 1.85 8.86762 1.85 9.78947V18.3246C1.85 19.2464 2.07815 19.9604 2.56142 20.4428C3.04464 20.9251 3.75712 21.15 4.66955 21.15H19.3304C20.247 21.15 20.9597 20.9252 21.4419 20.4427C21.9242 19.9601 22.15 19.246 22.15 18.3246V9.78947C22.15 8.86799 21.9242 8.15387 21.4419 7.67137C20.9597 7.18885 20.247 6.96403 19.3304 6.96403H16.5258V6.42105C16.5258 5.57195 16.3054 4.92151 15.8574 4.48471C15.4102 4.04859 14.7613 3.85 13.9568 3.85H10.0346C9.27128 3.85 8.62434 4.04955 8.16775 4.48336C7.70979 4.91847 7.46556 5.56802 7.46556 6.42105V6.96403ZM14.8867 6.32456V6.96403H9.10465V6.32456C9.10465 6.0203 9.19276 5.80222 9.33821 5.65981C9.48412 5.51694 9.70771 5.4307 10.0173 5.4307H13.9827C14.2922 5.4307 14.5132 5.5169 14.6568 5.65918C14.8002 5.80126 14.8867 6.01938 14.8867 6.32456ZM4.68683 19.4465C4.28798 19.4465 4.00902 19.3434 3.82852 19.1593C3.64749 18.9745 3.54093 18.6832 3.54093 18.2543V9.85965C3.54093 9.43557 3.64731 9.14387 3.82877 8.95779C4.0096 8.77237 4.28875 8.66754 4.68683 8.66754H19.3132C19.7112 8.66754 19.9904 8.77237 20.1713 8.9578C20.3527 9.14387 20.4591 9.43557 20.4591 9.85965V18.2543C20.4591 18.6832 20.3526 18.9745 20.1715 19.1593C19.991 19.3434 19.712 19.4465 19.3132 19.4465H4.68683Z" fill="black" stroke="black" stroke-width="0.3" stroke-miterlimit="3.99393"/>
<path d="M7.88428 14.8276C7.88428 15.2747 8.1819 15.5816 8.61557 15.5816H10.3503V17.3614C10.3503 17.8261 10.6394 18.1241 11.0816 18.1241H12.6036C13.0458 18.1241 13.335 17.8261 13.335 17.3614V15.5816H15.0697C15.5118 15.5816 15.8095 15.2747 15.8095 14.8276V13.2582C15.8095 12.8023 15.5118 12.4955 15.0697 12.4955H13.335V10.7244C13.335 10.2598 13.0458 9.96167 12.6036 9.96167H11.0816C10.6394 9.96167 10.3503 10.2598 10.3503 10.7244V12.4955H8.61557C8.17339 12.4955 7.88428 12.8023 7.88428 13.2582V14.8276Z" fill="black" stroke="black" stroke-width="0.3" stroke-miterlimit="3.99393"/>
</svg>
