<svg width="24" height="24" viewBox="0 0 24 24" fill="none" xmlns="http://www.w3.org/2000/svg">
<g clip-path="url(#clip0_443_5696)">
<path d="M4.18022 5.47248L3.94945 5.66422L3.95245 5.66773L4.18022 5.47248ZM2.2831 5.86974L2.57475 5.94003L2.57501 5.93897L2.2831 5.86974ZM3.51954 7.10994L3.81568 7.15802L3.81623 7.1544L3.51954 7.10994ZM3.68943 7.0518L3.89432 6.83264L3.89164 6.83019L3.68943 7.0518ZM7.52141 11.2472L7.80759 11.1571L7.80675 11.1545L7.52141 11.2472ZM12.1273 14.4543L12.0539 14.7452L12.0559 14.7456L12.1273 14.4543ZM18.0736 17.5257L17.837 17.7101L17.8381 17.7115L18.0736 17.5257ZM19.5271 16.489L19.7711 16.3144L19.7689 16.3114L19.5271 16.489ZM12.6087 13.185L12.5576 13.4806L12.5599 13.481L12.6087 13.185ZM8.14435 10.9371L7.90143 11.1132L7.90398 11.1166L8.14435 10.9371ZM1.69995 8.98962C1.69995 12.6609 2.77188 15.7313 4.69735 17.8878C6.62584 20.0477 9.38828 21.2653 12.7125 21.2653V20.6653C9.54318 20.6653 6.94932 19.5091 5.14492 17.4882C3.33751 15.4639 2.29995 12.5464 2.29995 8.98962H1.69995ZM12.7125 21.2653C15.0446 21.2653 17.0556 20.4915 18.4862 19.152C19.9182 17.8113 20.752 15.9189 20.752 13.7179H20.152C20.152 15.7607 19.3813 17.492 18.0762 18.7141C16.7696 19.9374 14.9109 20.6653 12.7125 20.6653V21.2653ZM20.752 13.7179C20.752 9.44752 17.3535 6.3933 12.7502 6.3933V6.9933C17.0758 6.9933 20.152 9.83005 20.152 13.7179H20.752ZM12.7502 6.3933C11.9562 6.3933 11.1604 6.50833 10.368 6.61904C9.56895 6.73068 8.76723 6.839 7.92726 6.839V7.439C8.81452 7.439 9.65508 7.32447 10.4511 7.21326C11.2538 7.10112 12.0059 6.9933 12.7502 6.9933V6.3933ZM7.92726 6.839C6.54774 6.839 5.38094 6.41222 4.40799 5.27723L3.95245 5.66773C5.05596 6.95502 6.39976 7.439 7.92726 7.439V6.839ZM4.41097 5.28076C4.08262 4.88557 3.57953 4.65263 3.09159 4.70811C2.57555 4.76679 2.14821 5.1385 1.9912 5.8005L2.57501 5.93897C2.68227 5.48672 2.92978 5.33038 3.15937 5.30427C3.41706 5.27497 3.73037 5.40055 3.94945 5.66422L4.41097 5.28076ZM1.99146 5.79944C1.75581 6.77711 1.69995 8.46553 1.69995 8.98962H2.29995C2.29995 8.46728 2.35735 6.84203 2.57475 5.94003L1.99146 5.79944ZM3.72515 8.98962C3.72515 8.34591 3.73527 7.65332 3.81568 7.15802L3.22341 7.06186C3.13394 7.61298 3.12515 8.35437 3.12515 8.98962H3.72515ZM3.81623 7.1544C3.81779 7.14394 3.81716 7.16072 3.80111 7.18819C3.78263 7.2198 3.73946 7.27079 3.66258 7.29289C3.58984 7.3138 3.53277 7.29547 3.50997 7.28555C3.48782 7.2759 3.48033 7.26712 3.48722 7.27341L3.89164 6.83019C3.85605 6.79772 3.80844 6.76108 3.74943 6.7354C3.68976 6.70943 3.59907 6.68685 3.49683 6.71624C3.28069 6.77837 3.23433 6.98889 3.22285 7.06548L3.81623 7.1544ZM3.48455 7.27094C4.60687 8.32022 6.34595 8.90205 7.92726 8.90205V8.30205C6.46942 8.30205 4.8862 7.75995 3.89432 6.83264L3.48455 7.27094ZM7.92726 8.90205C8.971 8.90205 9.91667 8.76302 10.7437 8.64725L10.6606 8.05304C9.82648 8.16979 8.92223 8.30205 7.92726 8.30205V8.90205ZM10.7437 8.64725C11.5012 8.54031 12.1422 8.45635 12.7502 8.45635V7.85635C12.0938 7.85635 11.4132 7.94679 10.6606 8.05304L10.7437 8.64725ZM12.7502 8.45635C16.3001 8.45635 18.7268 10.6703 18.7268 13.7179H19.3268C19.3268 10.2738 16.5624 7.85635 12.7502 7.85635V8.45635ZM18.7268 13.7179C18.7268 15.3488 18.1145 16.713 17.0686 17.6715C16.0207 18.6319 14.5181 19.2023 12.7125 19.2023V19.8023C14.6446 19.8023 16.2992 19.1906 17.474 18.1138C18.6509 17.0353 19.3268 15.5073 19.3268 13.7179H18.7268ZM12.7125 19.2023C9.94312 19.2023 7.70683 18.21 6.15954 16.4564C4.60862 14.6987 3.72515 12.1473 3.72515 8.98962H3.12515C3.12515 12.2558 4.03969 14.9608 5.70963 16.8534C7.38319 18.7501 9.7906 19.8023 12.7125 19.8023V19.2023ZM7.23525 11.3372C7.88366 13.3975 9.83046 14.1842 12.0539 14.7452L12.2007 14.1634C9.96932 13.6004 8.3484 12.8755 7.80759 11.1571L7.23525 11.3372ZM12.0559 14.7456C15.2425 15.5272 16.6188 16.1471 17.837 17.7101L18.3102 17.3413C16.9609 15.6101 15.4115 14.9509 12.1988 14.1629L12.0559 14.7456ZM17.8381 17.7115C18.3319 18.3373 18.644 19.0327 18.9061 19.821C19.1754 20.6309 19.3716 21.4656 19.6743 22.4578L20.2482 22.2829C19.9657 21.3566 19.7418 20.4325 19.4755 19.6317C19.202 18.8091 18.8628 18.0415 18.3091 17.3398L17.8381 17.7115ZM19.6743 22.4578C19.7605 22.741 19.907 22.958 20.1059 23.1024C20.3038 23.2459 20.5294 23.3 20.7446 23.3V22.7C20.6294 22.7 20.5342 22.6718 20.4583 22.6168C20.3835 22.5625 20.3036 22.4647 20.2482 22.2829L19.6743 22.4578ZM20.7446 23.3C21.6537 23.3 22.3 22.4484 22.3 21.5273H21.7C21.7 22.2147 21.2324 22.7 20.7446 22.7V23.3ZM22.3 21.5273C22.3 21.1432 22.1948 20.7104 22.035 20.2688C21.874 19.8238 21.6508 19.3517 21.3994 18.8842C20.8966 17.9493 20.2704 17.0124 19.7711 16.3144L19.2831 16.6635C19.7749 17.3511 20.385 18.2649 20.8709 19.1684C21.1139 19.6202 21.323 20.0644 21.4708 20.4729C21.6199 20.8848 21.7 21.2428 21.7 21.5273H22.3ZM19.7689 16.3114C18.4242 14.4811 16.1463 13.4648 12.6576 12.889L12.5599 13.481C15.9988 14.0485 18.0815 15.0281 19.2853 16.6666L19.7689 16.3114ZM12.6599 12.8894C10.8803 12.5817 9.39695 12.113 8.38471 10.7576L7.90398 11.1166C9.06257 12.668 10.7505 13.1682 12.5576 13.4806L12.6599 12.8894ZM8.38724 10.761C8.16879 10.4597 7.81937 10.3449 7.52126 10.5099C7.24003 10.6656 7.12832 11.008 7.23608 11.3398L7.80675 11.1545C7.78947 11.1013 7.79522 11.0684 7.80029 11.0536C7.80304 11.0456 7.80624 11.0408 7.80836 11.0382C7.80945 11.0369 7.81033 11.036 7.81091 11.0355C7.81001 11.0356 7.8107 11.035 7.81525 11.0364C7.82317 11.0387 7.8569 11.0518 7.90143 11.1132L8.38724 10.761Z" fill="black"/>
<path d="M2 8.98957C2 16.2177 6.21896 20.9653 12.7126 20.9653C17.243 20.9653 20.4521 17.9617 20.4521 13.7178C20.4521 9.63874 17.2147 6.69325 12.7503 6.69325C11.2119 6.69325 9.65454 7.13895 7.92731 7.13895C6.4738 7.13895 5.2185 6.68357 4.18027 5.47243C3.63284 4.81357 2.54743 4.75544 2.28315 5.86969C2.05663 6.80953 2 8.46636 2 8.98957ZM3.4252 8.98957C3.4252 8.35009 3.43464 7.6331 3.51959 7.10989C3.53846 6.98393 3.60453 6.97424 3.68948 7.05175C4.74658 8.04004 6.40773 8.60201 7.92731 8.60201C8.94666 8.60201 9.87162 8.46636 10.7022 8.35009C11.4573 8.24351 12.118 8.15631 12.7503 8.15631C16.4313 8.15631 19.0269 10.472 19.0269 13.7178C19.0269 17.1381 16.4502 19.5022 12.7126 19.5022C7.02122 19.5022 3.4252 15.4134 3.4252 8.98957ZM7.52146 11.2471C8.11608 13.1365 9.89994 13.8922 12.1274 14.4542C15.3271 15.239 16.7899 15.8786 18.0736 17.5256C19.1212 18.8531 19.3761 20.4517 19.9613 22.3702C20.1029 22.8353 20.4143 23 20.7446 23C21.4431 23 22 22.3315 22 21.5272C22 20.1902 20.5182 17.8745 19.5271 16.4889C18.2529 14.7545 16.0726 13.7566 12.6088 13.1849C10.8155 12.8749 9.22981 12.3904 8.14439 10.9371C7.84236 10.5205 7.37989 10.8111 7.52146 11.2471Z" fill="black"/>
</g>
<defs>
<clipPath id="clip0_443_5696">
<rect width="24" height="24" fill="white"/>
</clipPath>
</defs>
</svg>
